<svg class="logo-nav" xmlns="http://www.w3.org/2000/svg" viewBox="0 0 100 100">
    <g stroke="#FFFFFF" fill="none" stroke-linejoin="round" stroke-linecap="round">
        <polygon points="50,10 84.64,30 84.64,70 50,90 15.36,70 15.36,30" fill="#000000" stroke-width="2.5" />
        <line x1="50" y1="50" x2="50" y2="90" stroke-width="2.5" />
        <line x1="50" y1="50" x2="15.36" y2="30" stroke-width="2.5" />
        <line x1="50" y1="50" x2="84.64" y2="30" stroke-width="2.5" />
        
        <polygon points="50,15 75.98,30 50,45 24.02,30" stroke-width="2" />
        <polygon points="50,20 67.32,30 50,40 32.68,30" stroke-width="2" />
        <polygon points="50,25 58.66,30 50,35 41.34,30" stroke-width="2" />
        <polygon points="50,28 53.46,30 50,32 46.54,30" fill="#FFFFFF" stroke="none" />

        <polygon points="19.7,37.5 45.7,52.5 45.7,82.5 19.7,67.5" stroke-width="2" />
        <polygon points="24,45 41.3,55 41.3,75 24,65" stroke-width="2" />
        <polygon points="28.3,52.5 37,57.5 37,67.5 28.3,62.5" stroke-width="2" />
        <polygon points="31,57 34.4,59 34.4,63 31,61" fill="#FFFFFF" stroke="none" />
        <polygon points="54.3,52.5 80.3,37.5 80.3,67.5 54.3,82.5" stroke-width="2" />
        <polygon points="58.7,55 76,45 76,65 58.7,75" stroke-width="2" />
        <polygon points="63,57.5 71.7,52.5 71.7,62.5 63,67.5" stroke-width="2" />
        <polygon points="65.6,59 69,57 69,61 65.6,63" fill="#FFFFFF" stroke="none" />

        <circle cx="50" cy="50" r="14" fill="#000000" stroke-width="0" />
        <circle cx="50" cy="50" r="13.5" stroke-width="2" />
        <circle cx="50" cy="50" r="9.5" stroke-width="2" stroke-dasharray="3 2" />
        <circle cx="50" cy="50" r="5.5" stroke-width="2" />
        <polygon points="50,46 54,52 46,52" fill="#FFFFFF" stroke="none" />
    </g>
</svg>