<svg xmlns="http://www.w3.org/2000/svg" viewBox="0 0 100 100">
    <g stroke="#FFFFFF" fill="none" stroke-linejoin="round" stroke-linecap="round">
        <polygon points="50,10 84.64,30 84.64,70 50,90 15.36,70 15.36,30" fill="#000000" stroke-width="2" />
        <line x1="50" y1="50" x2="50" y2="90" stroke-width="2" />
        <line x1="50" y1="50" x2="15.36" y2="30" stroke-width="2" />
        <line x1="50" y1="50" x2="84.64" y2="30" stroke-width="2" />

        <polygon points="50,42 29.22,30 50,18 70.78,30" stroke-width="1.5" />
        <polygon points="50,36 39.61,30 50,24 60.39,30" stroke-width="1.2" />
        <polygon points="50,31.5 47.4,30 50,28.5 52.6,30" fill="#FFFFFF" stroke="none" />
        <polygon points="43.07,54 22.29,42 22.29,66 43.07,78" stroke-width="1.5" />
        <polygon points="37.87,57 27.48,51 27.48,63 37.87,69" stroke-width="1.2" />
        <polygon points="33.98,59.25 31.38,57.75 31.38,60.75 33.98,62.25" fill="#FFFFFF" stroke="none" />
        <polygon points="56.93,54 77.71,42 77.71,66 56.93,78" stroke-width="1.5" />
        <polygon points="62.13,57 72.52,51 72.52,63 62.13,69" stroke-width="1.2" />
        <polygon points="66.02,59.25 68.62,57.75 68.62,60.75 66.02,62.25" fill="#FFFFFF" stroke="none" />

        <circle cx="50" cy="50" r="13.5" fill="#000000" stroke-width="1.5" />
        
        <circle cx="50" cy="50" r="9.5" stroke-width="1.5" stroke-dasharray="3 3" />
        
        <circle cx="50" cy="50" r="5.5" stroke-width="1.5" />
        
        <polygon points="50,47 53,51.5 47,51.5" fill="#FFFFFF" stroke="none" />
    </g>
</svg>